<svg width="50" height="50" viewBox="0 0 50 50" fill="none" xmlns="http://www.w3.org/2000/svg">
<circle cx="25" cy="25" r="25" fill="white"/>
<path d="M25.0007 0C11.1914 0 0 11.2177 0 25.0511C0 38.112 9.97471 48.8398 22.708 50L22.8717 47.8965C23.2326 43.3152 22.0747 40.9097 19.3228 37.2314C17.9811 35.4403 17.1551 30.7829 17.1551 28.1142V10.5965C17.1551 9.86056 17.8338 9.28865 18.598 9.47208C19.1234 9.59735 19.4672 10.1096 19.4672 10.6487V25.8825C19.4672 26.1785 19.5885 26.4477 19.782 26.6416C19.9754 26.8354 20.2441 26.957 20.5395 26.957C21.1334 26.957 21.6119 26.4738 21.6119 25.8825V10.5965C21.6119 9.86056 22.2943 9.28865 23.0548 9.47208C23.5831 9.59735 23.9269 10.1096 23.9269 10.6487V25.8825C23.9269 26.1785 24.0453 26.4477 24.2417 26.6416C24.4352 26.8354 24.7009 26.957 24.9993 26.957C25.5931 26.957 26.0716 26.4738 26.0716 25.8825V10.5965C26.0716 9.86056 26.751 9.28865 27.5153 9.47208C28.0399 9.59735 28.3844 10.1096 28.3844 10.6487V25.8825C28.3844 26.1785 28.5057 26.4477 28.6992 26.6416C28.8927 26.8354 29.1621 26.957 29.4568 26.957C30.0506 26.957 30.5291 26.4738 30.5291 25.8825V10.6487C30.5291 10.1096 30.8736 9.59735 31.402 9.47208C32.1633 9.2879 32.8457 9.85982 32.8457 10.5965V28.1142C32.8457 30.7829 32.0189 35.4403 30.6772 37.2314C27.9216 40.909 26.7674 43.3115 27.1283 47.8965L27.2957 50C40.0253 48.8398 50 38.112 50 25.0511C50.0007 11.2177 38.8064 0 25.0007 0Z" fill="#0E110D"/>
</svg>
