<svg xmlns="http://www.w3.org/2000/svg" width="197" height="51" viewBox="0 0 197 51" fill="none"><path d="M78.316 35.364C76.244 35.364 74.536 34.8227 73.192 33.74C71.8667 32.6573 71.064 31.22 70.784 29.428L74.312 28.56C74.5173 29.7547 74.984 30.6507 75.712 31.248C76.4587 31.8453 77.3733 32.144 78.456 32.144C79.0347 32.144 79.548 32.0507 79.996 31.864C80.4627 31.6587 80.8267 31.3693 81.088 30.996C81.368 30.604 81.508 30.1467 81.508 29.624C81.508 29.1387 81.368 28.7187 81.088 28.364C80.808 28.0093 80.3787 27.6827 79.8 27.384C79.24 27.0853 78.5307 26.7773 77.672 26.46C76.44 25.9747 75.404 25.4613 74.564 24.92C73.7427 24.36 73.1267 23.716 72.716 22.988C72.3053 22.26 72.1 21.4013 72.1 20.412C72.1 19.3667 72.352 18.4427 72.856 17.64C73.3787 16.8373 74.0973 16.2027 75.012 15.736C75.9453 15.2693 77.028 15.036 78.26 15.036C79.5667 15.036 80.724 15.344 81.732 15.96C82.7587 16.5573 83.58 17.4533 84.196 18.648L81.312 20.412C80.92 19.7027 80.4533 19.1707 79.912 18.816C79.3893 18.4427 78.8013 18.256 78.148 18.256C77.6813 18.256 77.2613 18.3493 76.888 18.536C76.5333 18.704 76.244 18.9467 76.02 19.264C75.8147 19.5627 75.712 19.9173 75.712 20.328C75.712 20.7573 75.8333 21.14 76.076 21.476C76.3373 21.812 76.748 22.1387 77.308 22.456C77.8867 22.7547 78.6333 23.072 79.548 23.408C80.7613 23.856 81.7693 24.3507 82.572 24.892C83.3933 25.4333 84.0187 26.068 84.448 26.796C84.8773 27.5053 85.092 28.3733 85.092 29.4C85.092 30.5573 84.8027 31.5933 84.224 32.508C83.664 33.404 82.88 34.104 81.872 34.608C80.864 35.112 79.6787 35.364 78.316 35.364ZM87.8135 40.712V21.196H91.2855V24.892L90.4455 25.172C90.6881 24.0707 91.0521 23.212 91.5375 22.596C92.0415 21.98 92.6108 21.5507 93.2455 21.308C93.8801 21.0467 94.5428 20.916 95.2335 20.916C96.4468 20.916 97.4921 21.2333 98.3695 21.868C99.2655 22.484 99.9468 23.3333 100.413 24.416C100.88 25.4987 101.113 26.7307 101.113 28.112C101.113 29.6053 100.852 30.8933 100.329 31.976C99.8068 33.04 99.0975 33.8613 98.2015 34.44C97.3055 35 96.3161 35.28 95.2335 35.28C94.5055 35.28 93.8148 35.1307 93.1615 34.832C92.5081 34.5333 91.9481 34.0853 91.4815 33.488C91.0335 32.872 90.7255 32.0973 90.5575 31.164L91.2855 31.276V40.712H87.8135ZM94.2815 32.088C94.9721 32.088 95.5601 31.9293 96.0455 31.612C96.5495 31.276 96.9415 30.8093 97.2215 30.212C97.5015 29.6147 97.6415 28.9147 97.6415 28.112C97.6415 27.2907 97.5015 26.5813 97.2215 25.984C96.9415 25.3867 96.5495 24.9293 96.0455 24.612C95.5601 24.276 94.9721 24.108 94.2815 24.108C93.6095 24.108 93.0215 24.276 92.5175 24.612C92.0321 24.948 91.6495 25.4147 91.3695 26.012C91.1081 26.5907 90.9775 27.2907 90.9775 28.112C90.9775 28.9147 91.1081 29.6147 91.3695 30.212C91.6495 30.8093 92.0321 31.276 92.5175 31.612C93.0215 31.9293 93.6095 32.088 94.2815 32.088ZM103.864 35V21.196H107.336V35H103.864ZM103.752 19.068V15.484H107.476V19.068H103.752ZM116.831 35.28C115.711 35.28 114.731 35.084 113.891 34.692C113.07 34.2813 112.37 33.74 111.791 33.068C111.231 32.396 110.811 31.6307 110.531 30.772C110.251 29.9133 110.111 29.0173 110.111 28.084C110.111 27.1693 110.251 26.2827 110.531 25.424C110.811 24.5653 111.231 23.8 111.791 23.128C112.37 22.456 113.07 21.924 113.891 21.532C114.731 21.1213 115.711 20.916 116.831 20.916C118.231 20.916 119.444 21.252 120.471 21.924C121.498 22.596 122.263 23.6133 122.767 24.976L119.743 26.18C119.519 25.5267 119.174 24.9947 118.707 24.584C118.259 24.1547 117.634 23.94 116.831 23.94C116.084 23.94 115.468 24.1453 114.983 24.556C114.498 24.948 114.143 25.4613 113.919 26.096C113.695 26.7307 113.583 27.3933 113.583 28.084C113.583 28.7747 113.695 29.4467 113.919 30.1C114.143 30.7347 114.498 31.2573 114.983 31.668C115.468 32.06 116.084 32.256 116.831 32.256C117.634 32.256 118.259 32.0507 118.707 31.64C119.174 31.2107 119.519 30.66 119.743 29.988L122.767 31.192C122.263 32.5733 121.498 33.6 120.471 34.272C119.444 34.944 118.231 35.28 116.831 35.28ZM126.422 40.712L129.222 33.936L124.014 21.196H127.822L131.07 30.464L134.374 21.196H138.126L130.202 40.712H126.422ZM140.286 35V15.484H143.786V24.332L143.198 24.416C143.441 23.576 143.795 22.904 144.262 22.4C144.747 21.8773 145.298 21.504 145.914 21.28C146.549 21.0373 147.183 20.916 147.818 20.916C149.386 20.916 150.609 21.364 151.486 22.26C152.382 23.1373 152.83 24.3787 152.83 25.984V35H149.33V27.272C149.33 26.1147 149.125 25.2747 148.714 24.752C148.303 24.2107 147.659 23.94 146.782 23.94C145.793 23.94 145.046 24.2947 144.542 25.004C144.038 25.7133 143.786 26.8427 143.786 28.392V35H140.286ZM160.963 35.28C159.843 35.28 158.9 35.056 158.135 34.608C157.388 34.16 156.828 33.5253 156.455 32.704C156.1 31.8827 155.923 30.9213 155.923 29.82V21.196H159.395V28.952C159.395 29.5867 159.469 30.156 159.619 30.66C159.768 31.1453 160.029 31.5373 160.403 31.836C160.795 32.116 161.327 32.256 161.999 32.256C162.82 32.256 163.436 32.0227 163.847 31.556C164.276 31.0893 164.565 30.4453 164.715 29.624C164.883 28.784 164.967 27.804 164.967 26.684V21.196H168.439V35H164.967V32.004L165.443 32.284C165.032 33.348 164.425 34.1133 163.623 34.58C162.82 35.0467 161.933 35.28 160.963 35.28ZM171.896 35V21.196H175.396V24.332L174.836 24.388C175.078 23.548 175.433 22.876 175.9 22.372C176.366 21.868 176.908 21.504 177.524 21.28C178.14 21.0373 178.774 20.916 179.428 20.916C180.996 20.916 182.218 21.364 183.096 22.26C183.992 23.1373 184.44 24.3787 184.44 25.984V35H180.94V27.272C180.94 26.1147 180.734 25.2747 180.324 24.752C179.913 24.2107 179.269 23.94 178.392 23.94C177.72 23.94 177.16 24.0987 176.712 24.416C176.282 24.7147 175.956 25.1907 175.732 25.844C175.508 26.4973 175.396 27.3467 175.396 28.392V35H171.896ZM192.964 35.28C192.218 35.28 191.527 35.14 190.892 34.86C190.258 34.58 189.744 34.1227 189.352 33.488C188.979 32.8533 188.792 32.004 188.792 30.94V17.976L192.32 16.1V29.988C192.32 30.7907 192.423 31.3973 192.628 31.808C192.852 32.2187 193.282 32.424 193.916 32.424C194.103 32.424 194.308 32.4053 194.532 32.368C194.775 32.3307 195.036 32.2747 195.316 32.2V34.86C194.924 35.0093 194.532 35.112 194.14 35.168C193.748 35.2427 193.356 35.28 192.964 35.28ZM186.272 23.912V21.196H195.316V23.912H186.272Z" fill="white"></path><circle cx="25" cy="25.7959" r="25" fill="white"></circle><path d="M25.0007 0.795898C11.1914 0.795898 0 12.0136 0 25.847C0 38.9079 9.97471 49.6357 22.708 50.7959L22.8717 48.6924C23.2326 44.1111 22.0747 41.7056 19.3228 38.0273C17.9811 36.2362 17.1551 31.5788 17.1551 28.9101V11.3924C17.1551 10.6565 17.8338 10.0845 18.598 10.268C19.1234 10.3932 19.4672 10.9055 19.4672 11.4446V26.6784C19.4672 26.9744 19.5885 27.2436 19.782 27.4375C19.9754 27.6313 20.2441 27.7529 20.5395 27.7529C21.1334 27.7529 21.6119 27.2697 21.6119 26.6784V11.3924C21.6119 10.6565 22.2943 10.0845 23.0548 10.268C23.5831 10.3932 23.9269 10.9055 23.9269 11.4446V26.6784C23.9269 26.9744 24.0453 27.2436 24.2417 27.4375C24.4352 27.6313 24.7009 27.7529 24.9993 27.7529C25.5931 27.7529 26.0716 27.2697 26.0716 26.6784V11.3924C26.0716 10.6565 26.751 10.0845 27.5153 10.268C28.0399 10.3932 28.3844 10.9055 28.3844 11.4446V26.6784C28.3844 26.9744 28.5057 27.2436 28.6992 27.4375C28.8927 27.6313 29.1621 27.7529 29.4568 27.7529C30.0506 27.7529 30.5291 27.2697 30.5291 26.6784V11.4446C30.5291 10.9055 30.8736 10.3932 31.402 10.268C32.1633 10.0838 32.8457 10.6557 32.8457 11.3924V28.9101C32.8457 31.5788 32.0189 36.2362 30.6772 38.0273C27.9216 41.7049 26.7674 44.1074 27.1283 48.6924L27.2957 50.7959C40.0253 49.6357 50 38.9079 50 25.847C50.0007 12.0136 38.8064 0.795898 25.0007 0.795898Z" fill="#A6A182"></path></svg>